<svg width="125" height="125" viewBox="0 0 125 125" fill="none" xmlns="http://www.w3.org/2000/svg">
<path d="M74.2188 11.7188C73.321 11.7187 72.4321 11.8956 71.6027 12.2391C70.7734 12.5826 70.0198 13.0862 69.385 13.721C68.7502 14.3557 68.2467 15.1093 67.9032 15.9387C67.5596 16.7681 67.3828 17.657 67.3828 18.5547C67.3828 19.4524 67.5596 20.3413 67.9032 21.1707C68.2467 22.0001 68.7502 22.7536 69.385 23.3884C70.0198 24.0232 70.7734 24.5267 71.6027 24.8703C72.4321 25.2138 73.321 25.3906 74.2188 25.3906C75.1165 25.3906 76.0054 25.2138 76.8348 24.8703C77.6641 24.5267 78.4177 24.0232 79.0525 23.3884C79.6873 22.7536 80.1908 22.0001 80.5343 21.1707C80.8779 20.3413 81.0547 19.4524 81.0547 18.5547C81.0547 17.657 80.8779 16.7681 80.5343 15.9387C80.1908 15.1093 79.6873 14.3557 79.0525 13.721C78.4177 13.0862 77.6641 12.5826 76.8348 12.2391C76.0054 11.8956 75.1165 11.7187 74.2188 11.7188ZM74.2188 99.6094C73.321 99.6094 72.4321 99.7862 71.6027 100.13C70.7734 100.473 70.0198 100.977 69.385 101.612C68.7502 102.246 68.2467 103 67.9032 103.829C67.5596 104.659 67.3828 105.548 67.3828 106.445C67.3828 107.343 67.5596 108.232 67.9032 109.061C68.2467 109.891 68.7502 110.644 69.385 111.279C70.0198 111.914 70.7734 112.417 71.6027 112.761C72.4321 113.104 73.321 113.281 74.2188 113.281C75.1165 113.281 76.0054 113.104 76.8348 112.761C77.6641 112.417 78.4177 111.914 79.0525 111.279C79.6873 110.644 80.1908 109.891 80.5343 109.061C80.8779 108.232 81.0547 107.343 81.0547 106.445C81.0547 105.548 80.8779 104.659 80.5343 103.829C80.1908 103 79.6873 102.246 79.0525 101.612C78.4177 100.977 77.6641 100.473 76.8348 100.13C76.0054 99.7862 75.1165 99.6094 74.2188 99.6094ZM56.6406 25.5859C56.6406 20.7031 52.7344 16.7969 47.8516 16.7969C42.9688 16.7969 39.0625 20.7031 39.0625 25.5859C37.4023 24.3164 35.4492 23.6328 33.2031 23.6328C27.832 23.6328 23.4375 28.0273 23.4375 33.3984C23.4375 34.4727 23.6328 35.4492 23.9258 36.3281C23.7305 36.3281 23.6328 36.3281 23.4375 36.3281C17.4805 36.3281 12.6953 41.1133 12.6953 47.0703C12.6953 49.4141 13.3789 51.4648 14.6484 53.2227C10.5469 55.8594 7.8125 60.3516 7.8125 65.625C7.8125 70.8008 10.5469 75.3906 14.5508 77.9297C13.3789 80.0781 12.6953 82.5195 12.6953 85.1562C12.6953 93.2617 19.2383 99.8047 27.3438 99.8047C27.6367 99.8047 27.9297 99.8047 28.2227 99.8047C30.1758 105.469 35.6445 109.57 41.9922 109.57C50.0977 109.57 56.6406 103.027 56.6406 94.9219C56.6406 86.9141 56.6406 30.4688 56.6406 25.5859Z" fill="white"/>
<path d="M47.8516 13.8672C42.8711 13.8672 38.6719 16.8945 36.9141 21.2891C35.7422 20.8984 34.4727 20.7031 33.2031 20.7031C26.1719 20.7031 20.5078 26.3672 20.5078 33.3984C20.5078 33.3984 20.5078 33.3984 20.5078 33.4961C14.3555 34.8633 9.66797 40.332 9.66797 46.875C9.66797 48.8281 10.0586 50.6836 10.8398 52.4414C7.12891 55.7617 4.88281 60.5469 4.88281 65.625C4.88281 66.2109 4.88281 66.6992 4.98047 67.1875C4.98047 67.2852 4.98047 67.3828 4.98047 67.4805C5.07812 67.9688 5.07813 68.5547 5.17578 69.043C5.17578 69.1406 5.17578 69.1406 5.17578 69.2383C5.27344 69.7266 5.37109 70.2148 5.56641 70.7031V70.8008C5.76172 71.2891 5.95703 71.7773 6.15234 72.3633C6.15234 72.3633 6.15234 72.4609 6.25 72.4609C6.64063 73.4375 7.22656 74.4141 7.8125 75.293C7.8125 75.293 7.8125 75.3906 7.91016 75.3906C8.49609 76.2695 9.17969 77.0508 9.96094 77.832C10.0586 77.9297 10.0586 77.9297 10.1562 78.0274C10.5469 78.3203 10.8398 78.7109 11.2305 79.0039C11.3281 79.1016 11.4258 79.1992 11.5234 79.1992C11.8164 79.3945 12.1094 79.5899 12.4023 79.7852C12.5977 79.8828 12.6953 79.9805 12.8906 80.1758L12.9883 80.2734C13.0859 80.2734 13.0859 80.3711 13.1836 80.3711C15.918 82.0313 19.043 83.0078 22.4609 83.0078C32.1289 83.0078 40.0391 75.0977 40.0391 65.4297V60.5469C40.0391 58.8867 38.7695 57.6172 37.1094 57.6172C35.4492 57.6172 34.1797 58.8867 34.1797 60.5469V65.4297C34.1797 71.875 28.9062 77.1484 22.4609 77.1484C20.1172 77.1484 17.9688 76.4648 16.1133 75.293C15.332 74.8047 14.5508 74.2188 13.9648 73.5352C13.8672 73.4375 13.7695 73.3398 13.7695 73.2422C13.5742 73.0469 13.3789 72.7539 13.1836 72.4609C13.0859 72.3633 12.9883 72.2656 12.8906 72.0703C12.6953 71.7774 12.5 71.4844 12.3047 71.1914C12.3047 71.0938 12.207 71.0938 12.207 70.9961C12.0117 70.6055 11.8164 70.2148 11.6211 69.8242C11.5234 69.7266 11.5234 69.5312 11.4258 69.4336C11.3281 69.1406 11.2305 68.8477 11.1328 68.5547C11.1328 68.3594 11.0352 68.2617 11.0352 68.0664C10.9375 67.7734 10.9375 67.4805 10.8398 67.1875C10.8398 67.0898 10.8398 66.8945 10.7422 66.7969C10.7422 66.6016 10.7422 66.1133 10.7422 65.625C10.7422 61.6211 12.793 57.9102 16.2109 55.7617C17.2852 55.0781 17.7734 53.8086 17.4805 52.5391C17.3828 52.1484 17.2852 51.6602 16.9922 51.2695C16.0156 49.9023 15.5273 48.4375 15.5273 46.7773C15.5273 42.9688 18.2617 39.8438 21.875 39.0625C24.0234 43.1641 28.2227 45.9961 33.2031 45.9961C34.8633 45.9961 36.1328 44.7266 36.1328 43.0664C36.1328 41.4062 34.8633 40.1367 33.2031 40.1367C30.1758 40.1367 27.5391 38.0859 26.6602 35.3516C26.5625 35.0586 26.4648 34.7656 26.4648 34.4727C26.4648 34.375 26.4648 34.375 26.4648 34.2773C26.4648 33.9844 26.3672 33.6914 26.3672 33.3008C26.3672 29.4922 29.3945 26.4648 33.2031 26.4648C34.668 26.4648 36.1328 26.9531 37.3047 27.832C38.1836 28.5156 39.3555 28.6133 40.332 28.125C41.3086 27.6367 41.9922 26.6602 41.9922 25.4883C41.9922 25.4883 41.9922 25.4883 41.9922 25.3906C41.9922 22.168 44.6289 19.6289 47.8516 19.6289C51.0742 19.6289 53.7109 22.2656 53.7109 25.4883V94.8242C53.7109 101.27 48.4375 106.543 41.9922 106.543C37.0117 106.543 32.6172 103.418 30.957 98.7305C30.5664 97.4609 29.2969 96.6797 28.0273 96.7774H27.7344C27.6367 96.7774 27.4414 96.7774 27.3438 96.7774C20.8984 96.7774 15.625 91.5039 15.625 85.0586C15.625 83.3984 14.3555 82.1289 12.6953 82.1289C11.0352 82.1289 9.76562 83.3984 9.76562 85.0586C9.76562 94.3359 17.0898 102.051 26.2695 102.637C29.1992 108.594 35.2539 112.402 41.9922 112.402C51.6602 112.402 59.5703 104.492 59.5703 94.8242V25.4883C59.5703 19.1406 54.2969 13.8672 47.8516 13.8672Z" fill="#353740"/>
<path d="M19.5312 56.25H14.6484C12.9883 56.25 11.7188 54.9805 11.7188 53.3203C11.7188 51.6602 12.9883 50.3906 14.6484 50.3906H19.5312C21.1914 50.3906 22.4609 51.6602 22.4609 53.3203C22.4609 54.9805 21.1914 56.25 19.5312 56.25Z" fill="#444B54"/>
<path d="M108.398 55.6641C106.585 55.6641 104.847 56.3843 103.565 57.6663C102.283 58.9482 101.562 60.687 101.562 62.5C101.562 64.313 102.283 66.0518 103.565 67.3337C104.847 68.6157 106.585 69.3359 108.398 69.3359C110.211 69.3359 111.95 68.6157 113.232 67.3337C114.514 66.0518 115.234 64.313 115.234 62.5C115.234 60.687 114.514 58.9482 113.232 57.6663C111.95 56.3843 110.211 55.6641 108.398 55.6641ZM99.6094 25.3906C98.7117 25.3906 97.8227 25.5674 96.9934 25.911C96.164 26.2545 95.4104 26.758 94.7756 27.3928C94.1409 28.0276 93.6373 28.7812 93.2938 29.6106C92.9503 30.4399 92.7734 31.3289 92.7734 32.2266C92.7734 33.1243 92.9503 34.0132 93.2938 34.8426C93.6373 35.6719 94.1409 36.4255 94.7756 37.0603C95.4104 37.6951 96.164 38.1986 96.9934 38.5421C97.8227 38.8857 98.7117 39.0625 99.6094 39.0625C100.507 39.0625 101.396 38.8857 102.225 38.5421C103.055 38.1986 103.808 37.6951 104.443 37.0603C105.078 36.4255 105.581 35.6719 105.925 34.8426C106.268 34.0132 106.445 33.1243 106.445 32.2266C106.445 31.3289 106.268 30.4399 105.925 29.6106C105.581 28.7812 105.078 28.0276 104.443 27.3928C103.808 26.758 103.055 26.2545 102.225 25.911C101.396 25.5674 100.507 25.3906 99.6094 25.3906ZM99.6094 85.9375C97.7964 85.9375 96.0576 86.6577 94.7756 87.9397C93.4937 89.2217 92.7734 90.9604 92.7734 92.7734C92.7734 94.5864 93.4937 96.3252 94.7756 97.6072C96.0576 98.8892 97.7964 99.6094 99.6094 99.6094C101.422 99.6094 103.161 98.8892 104.443 97.6072C105.725 96.3252 106.445 94.5864 106.445 92.7734C106.445 90.9604 105.725 89.2217 104.443 87.9397C103.161 86.6577 101.422 85.9375 99.6094 85.9375Z" fill="white"/>
<path d="M94.7266 90.8203C93.9453 90.8203 93.2617 90.5273 92.6758 89.9414L82.8125 80.0781H69.3359C67.6758 80.0781 66.4062 78.8086 66.4062 77.1484C66.4062 75.4883 67.6758 74.2188 69.3359 74.2188H83.9844C84.7656 74.2188 85.5469 74.5117 86.0352 75.0977L96.7773 85.8398C97.9492 87.0117 97.9492 88.8672 96.7773 89.9414C96.1914 90.5273 95.5078 90.8203 94.7266 90.8203ZM83.9844 50.7812H69.3359C67.6758 50.7812 66.4062 49.5117 66.4062 47.8516C66.4062 46.1914 67.6758 44.9219 69.3359 44.9219H82.8125L92.6758 35.0586C93.8477 33.8867 95.7031 33.8867 96.7773 35.0586C97.9492 36.2305 97.9492 38.0859 96.7773 39.1602L86.0352 49.9023C85.5469 50.4883 84.7656 50.7812 83.9844 50.7812ZM101.562 65.4297H69.3359C67.6758 65.4297 66.4062 64.1602 66.4062 62.5C66.4062 60.8398 67.6758 59.5703 69.3359 59.5703H101.562C103.223 59.5703 104.492 60.8398 104.492 62.5C104.492 64.1602 103.223 65.4297 101.562 65.4297Z" fill="#0079D3"/>
<path d="M108.398 72.2656C103.027 72.2656 98.6328 67.8711 98.6328 62.5C98.6328 57.1289 103.027 52.7344 108.398 52.7344C113.77 52.7344 118.164 57.1289 118.164 62.5C118.164 67.8711 113.77 72.2656 108.398 72.2656ZM108.398 58.5938C106.25 58.5938 104.492 60.3516 104.492 62.5C104.492 64.6484 106.25 66.4062 108.398 66.4062C110.547 66.4062 112.305 64.6484 112.305 62.5C112.305 60.3516 110.547 58.5938 108.398 58.5938ZM99.6094 41.9922C94.2383 41.9922 89.8438 37.5977 89.8438 32.2266C89.8438 26.8555 94.2383 22.4609 99.6094 22.4609C104.98 22.4609 109.375 26.8555 109.375 32.2266C109.375 37.5977 104.98 41.9922 99.6094 41.9922ZM99.6094 28.3203C97.4609 28.3203 95.7031 30.0781 95.7031 32.2266C95.7031 34.375 97.4609 36.1328 99.6094 36.1328C101.758 36.1328 103.516 34.375 103.516 32.2266C103.516 30.0781 101.758 28.3203 99.6094 28.3203ZM74.2188 28.3203C68.8477 28.3203 64.4531 23.9258 64.4531 18.5547C64.4531 13.1836 68.8477 8.78906 74.2188 8.78906C79.5898 8.78906 83.9844 13.1836 83.9844 18.5547C83.9844 23.9258 79.5898 28.3203 74.2188 28.3203ZM74.2188 14.6484C72.0703 14.6484 70.3125 16.4062 70.3125 18.5547C70.3125 20.7031 72.0703 22.4609 74.2188 22.4609C76.3672 22.4609 78.125 20.7031 78.125 18.5547C78.125 16.4062 76.3672 14.6484 74.2188 14.6484ZM99.6094 102.539C94.2383 102.539 89.8438 98.1445 89.8438 92.7734C89.8438 87.4023 94.2383 83.0078 99.6094 83.0078C104.98 83.0078 109.375 87.4023 109.375 92.7734C109.375 98.1445 104.98 102.539 99.6094 102.539ZM99.6094 88.8672C97.4609 88.8672 95.7031 90.625 95.7031 92.7734C95.7031 94.9219 97.4609 96.6797 99.6094 96.6797C101.758 96.6797 103.516 94.9219 103.516 92.7734C103.516 90.625 101.758 88.8672 99.6094 88.8672ZM74.2188 116.211C68.8477 116.211 64.4531 111.816 64.4531 106.445C64.4531 101.074 68.8477 96.6797 74.2188 96.6797C79.5898 96.6797 83.9844 101.074 83.9844 106.445C83.9844 111.816 79.5898 116.211 74.2188 116.211ZM74.2188 102.539C72.0703 102.539 70.3125 104.297 70.3125 106.445C70.3125 108.594 72.0703 110.352 74.2188 110.352C76.3672 110.352 78.125 108.594 78.125 106.445C78.125 104.297 76.3672 102.539 74.2188 102.539Z" fill="#0079D3"/>
</svg>
