<svg width="180" height="180" viewBox="0 0 180 180" fill="none" xmlns="http://www.w3.org/2000/svg">
<path d="M90 12.6562C47.25 12.6562 12.6562 47.25 12.6562 90C12.6562 132.75 47.25 167.344 90 167.344C110.812 167.344 129.656 159.188 143.578 145.828C145.828 143.719 133.734 127.406 135.703 125.016C138.234 121.922 154.688 132.609 156.797 129.094C163.547 117.563 167.344 104.203 167.344 90C167.344 47.25 132.75 12.6562 90 12.6562ZM90 132.188C66.6562 132.188 47.8125 113.344 47.8125 90C47.8125 66.6562 66.6562 47.8125 90 47.8125C113.344 47.8125 132.188 66.6562 132.188 90C132.188 113.344 113.344 132.188 90 132.188Z" fill="#71C2FF"/>
<path d="M167.343 90C167.343 47.25 132.749 12.6562 89.999 12.6562V47.8125C113.343 47.8125 132.187 66.6562 132.187 90C132.187 97.7344 130.077 104.906 126.421 111.234L126.983 111.797L126.28 111.375C119.108 123.75 105.468 132.188 89.999 132.188C74.249 132.188 60.6084 123.609 53.2959 110.953L22.7803 128.25C36.1396 151.594 61.1709 167.344 89.999 167.344C118.405 167.344 143.296 152.016 156.655 129.094L155.53 128.391L156.796 128.812C163.546 117.422 167.343 104.203 167.343 90Z" fill="white"/>
<path d="M139.921 143.437C126.28 156.094 108.562 163.125 89.999 163.125C65.249 163.125 42.1865 150.469 28.6865 129.797L51.8896 116.578C60.6084 128.953 74.8115 136.406 89.999 136.406C92.3896 136.406 94.2178 134.578 94.2178 132.187C94.2178 129.797 92.3896 127.969 89.999 127.969C76.3584 127.969 63.8428 120.656 56.9521 108.844C55.8271 106.875 53.1553 106.172 51.1865 107.297L20.6709 124.594C19.6865 125.156 18.9834 126 18.7021 127.125C18.4209 128.25 18.5615 129.375 19.124 130.359C33.6084 155.812 60.749 171.562 89.999 171.562C110.812 171.562 130.499 163.828 145.687 149.625C147.374 148.078 147.515 145.406 145.827 143.719C144.28 141.89 141.608 141.89 139.921 143.437Z" fill="#444B54"/>
<path d="M156.797 133.031C156.094 133.031 155.391 132.891 154.688 132.469L124.313 114.891C123.328 114.328 122.625 113.344 122.344 112.359C122.062 111.234 122.203 110.109 122.766 109.125C126.141 103.359 127.969 96.75 127.969 90C127.969 69.0469 110.953 52.0312 90 52.0312C87.6094 52.0312 85.7812 50.2031 85.7812 47.8125V12.6562C85.7812 10.2656 87.6094 8.4375 90 8.4375C135 8.4375 171.562 45 171.562 90C171.562 104.344 167.766 118.547 160.453 130.922C159.75 132.328 158.344 133.031 156.797 133.031ZM132.047 109.547L155.25 123.047C160.453 112.781 163.125 101.531 163.125 90C163.125 51.0469 132.609 19.125 94.2188 17.0156V43.7344C117.844 45.9844 136.406 65.8125 136.406 90C136.406 96.75 134.859 103.5 132.047 109.547Z" fill="#444B54"/>
<path d="M113.906 129.375C116.236 129.375 118.125 127.486 118.125 125.156C118.125 122.826 116.236 120.938 113.906 120.938C111.576 120.938 109.688 122.826 109.688 125.156C109.688 127.486 111.576 129.375 113.906 129.375Z" fill="#444B54"/>
</svg>
