<svg width="64" height="297" viewBox="0 0 64 297" fill="none" xmlns="http://www.w3.org/2000/svg">
<path d="M10.3203 218.781L2.50781 0.03125H61.2969L53.4844 218.781H10.3203ZM0.75 265.656C0.75 256.281 3.61458 248.729 9.34375 243C15.0729 237.271 22.625 234.406 32 234.406C41.375 234.406 48.9271 237.271 54.6562 243C60.3854 248.729 63.25 256.281 63.25 265.656C63.25 275.031 60.3854 282.583 54.6562 288.312C48.9271 294.042 41.375 296.906 32 296.906C22.625 296.906 15.0729 294.042 9.34375 288.312C3.61458 282.583 0.75 275.031 0.75 265.656Z" fill="#5D83AF"/>
</svg>
