<svg width="180" height="180" viewBox="0 0 180 180" fill="none" xmlns="http://www.w3.org/2000/svg">
<path d="M154.266 154.688H25.5938C18.4219 154.688 12.6562 148.922 12.6562 141.75V31.7813C12.6562 28.2656 15.6094 25.3125 19.125 25.3125H135C138.516 25.3125 141.469 28.2656 141.469 31.7813V64.2656V141.891C141.469 148.922 147.234 154.688 154.266 154.688C161.438 154.688 167.203 148.922 167.203 141.75V70.5938C167.203 67.0781 164.25 64.125 160.734 64.125H154.266" fill="#F7F7FB"/>
<path d="M32.3438 44.8594H121.078C123.469 44.8594 125.297 46.6875 125.297 49.0781V72.8438C125.297 75.2344 123.469 77.0625 121.078 77.0625H32.3438C29.9531 77.0625 28.125 75.2344 28.125 72.8438V49.0781C28.125 46.6875 29.9531 44.8594 32.3438 44.8594ZM154.266 154.688C161.438 154.688 167.203 148.922 167.203 141.75V70.5938C167.203 67.0781 164.25 64.125 160.734 64.125H141.328V141.75C141.469 148.922 147.234 154.688 154.266 154.688Z" fill="#DEDFE6"/>
<path d="M154.266 158.906H25.5938C16.1719 158.906 8.4375 151.172 8.4375 141.75V31.7813C8.4375 25.875 13.2188 21.0938 19.125 21.0938H135C140.906 21.0938 145.688 25.875 145.688 31.7813V141.891C145.688 146.672 149.625 150.609 154.406 150.609C159.188 150.609 163.125 146.672 163.125 141.891V70.5938C163.125 69.3281 162.141 68.3437 160.875 68.3437H154.406C152.016 68.3437 150.188 66.5156 150.188 64.125C150.188 61.7344 152.016 59.9062 154.406 59.9062H160.875C166.781 59.9062 171.562 64.6875 171.562 70.5938V141.75C171.422 151.312 163.688 158.906 154.266 158.906ZM19.125 29.5312C17.8594 29.5312 16.875 30.5156 16.875 31.7813V141.891C16.875 146.672 20.8125 150.609 25.5938 150.609H139.641C138.094 148.078 137.25 145.125 137.25 141.891V31.7813C137.25 30.5156 136.266 29.5312 135 29.5312H19.125Z" fill="#464C55"/>
<path d="M57.9375 102.516H32.3438C29.9531 102.516 28.125 100.688 28.125 98.2969C28.125 95.9063 29.9531 94.0781 32.3438 94.0781H57.9375C60.3281 94.0781 62.1562 95.9063 62.1562 98.2969C62.1562 100.688 60.3281 102.516 57.9375 102.516ZM57.9375 138.797H32.3438C29.9531 138.797 28.125 136.969 28.125 134.578C28.125 132.188 29.9531 130.359 32.3438 130.359H57.9375C60.3281 130.359 62.1562 132.188 62.1562 134.578C62.1562 136.969 60.3281 138.797 57.9375 138.797ZM57.9375 120.516H32.3438C29.9531 120.516 28.125 118.687 28.125 116.297C28.125 113.906 29.9531 112.078 32.3438 112.078H57.9375C60.3281 112.078 62.1562 113.906 62.1562 116.297C62.1562 118.687 60.3281 120.516 57.9375 120.516Z" fill="#DEDFE6"/>
<path d="M120.938 139.359H81.5625C79.1719 139.359 77.3438 137.531 77.3438 135.141V96.4688C77.3438 94.0781 79.1719 92.25 81.5625 92.25H120.938C123.328 92.25 125.156 94.0781 125.156 96.4688V135.141C125.156 137.391 123.328 139.359 120.938 139.359ZM85.7812 130.922H116.719V100.688H85.7812V130.922Z" fill="#464C55"/>
</svg>
