<svg width="169" height="304" viewBox="0 0 169 304" fill="none" xmlns="http://www.w3.org/2000/svg">
<path d="M0.515625 29.8828C11.1927 21.9401 23.6276 15.1693 37.8203 9.57031C52.013 3.84115 67.5078 0.976562 84.3047 0.976562C103.836 0.976562 119.786 4.81771 132.156 12.5C144.656 20.0521 153.836 29.7526 159.695 41.6016C165.555 53.3203 168.484 65.4948 168.484 78.125C168.484 88.6719 166.727 97.7865 163.211 105.469C159.695 113.151 155.138 120.117 149.539 126.367C144.07 132.487 138.211 138.542 131.961 144.531C125.711 150.521 119.786 157.096 114.188 164.258C108.719 171.289 104.227 179.622 100.711 189.258C97.1953 198.763 95.4375 210.221 95.4375 223.633H47.9766C47.9766 204.622 50.2552 188.672 54.8125 175.781C59.3698 162.76 65.0339 151.758 71.8047 142.773C78.5755 133.789 85.3464 125.911 92.1172 119.141C99.0182 112.24 104.747 105.599 109.305 99.2188C113.862 92.7083 116.141 85.3516 116.141 77.1484C116.141 68.2943 113.016 60.6771 106.766 54.2969C100.646 47.9167 91.6615 44.7266 79.8125 44.7266C69.1354 44.7266 59.2396 47.2656 50.125 52.3438C41.0104 57.4219 32.3516 63.0208 24.1484 69.1406L0.515625 29.8828ZM40.3594 272.656C40.3594 263.281 43.224 255.729 48.9531 250C54.6823 244.271 62.2344 241.406 71.6094 241.406C80.9844 241.406 88.5365 244.271 94.2656 250C99.9948 255.729 102.859 263.281 102.859 272.656C102.859 282.031 99.9948 289.583 94.2656 295.312C88.5365 301.042 80.9844 303.906 71.6094 303.906C62.2344 303.906 54.6823 301.042 48.9531 295.312C43.224 289.583 40.3594 282.031 40.3594 272.656Z" fill="#5D83AF"/>
</svg>
