<svg width="180" height="180" viewBox="0 0 180 180" fill="none" xmlns="http://www.w3.org/2000/svg">
<path d="M90 4.21875C86.2704 4.21875 82.6935 5.70033 80.0563 8.33756C77.4191 10.9748 75.9375 14.5516 75.9375 18.2812C75.9375 22.0109 77.4191 25.5877 80.0563 28.2249C82.6935 30.8622 86.2704 32.3438 90 32.3438C93.7296 32.3438 97.3065 30.8622 99.9437 28.2249C102.581 25.5877 104.062 22.0109 104.062 18.2812C104.062 14.5516 102.581 10.9748 99.9437 8.33756C97.3065 5.70033 93.7296 4.21875 90 4.21875ZM90 147.656C86.2704 147.656 82.6935 149.138 80.0563 151.775C77.4191 154.412 75.9375 157.989 75.9375 161.719C75.9375 165.448 77.4191 169.025 80.0563 171.662C82.6935 174.3 86.2704 175.781 90 175.781C93.7296 175.781 97.3065 174.3 99.9437 171.662C102.581 169.025 104.062 165.448 104.062 161.719C104.062 157.989 102.581 154.412 99.9437 151.775C97.3065 149.138 93.7296 147.656 90 147.656ZM153.281 112.5C149.552 112.5 145.975 113.982 143.338 116.619C140.7 119.256 139.219 122.833 139.219 126.562C139.219 130.292 140.7 133.869 143.338 136.506C145.975 139.143 149.552 140.625 153.281 140.625C157.011 140.625 160.588 139.143 163.225 136.506C165.862 133.869 167.344 130.292 167.344 126.562C167.344 122.833 165.862 119.256 163.225 116.619C160.588 113.982 157.011 112.5 153.281 112.5ZM153.281 39.375C149.552 39.375 145.975 40.8566 143.338 43.4938C140.7 46.131 139.219 49.7079 139.219 53.4375C139.219 57.1671 140.7 60.744 143.338 63.3812C145.975 66.0184 149.552 67.5 153.281 67.5C157.011 67.5 160.588 66.0184 163.225 63.3812C165.862 60.744 167.344 57.1671 167.344 53.4375C167.344 49.7079 165.862 46.131 163.225 43.4938C160.588 40.8566 157.011 39.375 153.281 39.375ZM26.7188 39.375C22.9891 39.375 19.4123 40.8566 16.7751 43.4938C14.1378 46.131 12.6563 49.7079 12.6562 53.4375C12.6563 57.1671 14.1378 60.744 16.7751 63.3812C19.4123 66.0184 22.9891 67.5 26.7188 67.5C30.4484 67.5 34.0252 66.0184 36.6624 63.3812C39.2997 60.744 40.7812 57.1671 40.7812 53.4375C40.7812 49.7079 39.2997 46.131 36.6624 43.4938C34.0252 40.8566 30.4484 39.375 26.7188 39.375ZM26.7188 112.5C22.9891 112.5 19.4123 113.982 16.7751 116.619C14.1378 119.256 12.6563 122.833 12.6562 126.562C12.6563 130.292 14.1378 133.869 16.7751 136.506C19.4123 139.143 22.9891 140.625 26.7188 140.625C30.4484 140.625 34.0252 139.143 36.6624 136.506C39.2997 133.869 40.7812 130.292 40.7812 126.562C40.7812 122.833 39.2997 119.256 36.6624 116.619C34.0252 113.982 30.4484 112.5 26.7188 112.5Z" fill="white"/>
<path d="M26.7188 98.4375C24.3281 98.4375 22.5 96.6094 22.5 94.2188V85.7812C22.5 83.3906 24.3281 81.5625 26.7188 81.5625C29.1094 81.5625 30.9375 83.3906 30.9375 85.7812V94.2188C30.9375 96.6094 28.9688 98.4375 26.7188 98.4375ZM62.0156 151.172C61.3125 151.172 60.6094 151.031 59.9062 150.609L52.5938 146.391C50.625 145.266 49.9219 142.594 51.0469 140.625C52.1719 138.656 54.8438 137.953 56.8125 139.078L64.125 143.297C66.0937 144.422 66.7969 147.094 65.6719 149.062C64.8281 150.469 63.4219 151.172 62.0156 151.172ZM117.984 151.172C116.578 151.172 115.172 150.469 114.328 149.062C113.203 147.094 113.906 144.422 115.875 143.297L123.188 139.078C125.156 137.953 127.828 138.656 128.953 140.625C130.078 142.594 129.375 145.266 127.406 146.391L120.094 150.609C119.391 151.031 118.688 151.172 117.984 151.172ZM153.281 98.4375C150.891 98.4375 149.062 96.6094 149.062 94.2188V85.7812C149.062 83.3906 150.891 81.5625 153.281 81.5625C155.672 81.5625 157.5 83.3906 157.5 85.7812V94.2188C157.5 96.6094 155.672 98.4375 153.281 98.4375ZM125.297 41.4844C124.594 41.4844 123.891 41.3438 123.188 40.9219L115.875 36.7031C113.906 35.5781 113.203 32.9062 114.328 30.9375C115.453 28.9688 118.125 28.2656 120.094 29.3906L127.406 33.6094C129.375 34.7344 130.078 37.4062 128.953 39.375C128.25 40.7812 126.703 41.4844 125.297 41.4844ZM54.7031 41.4844C53.2969 41.4844 51.8906 40.7812 51.0469 39.375C49.9219 37.4062 50.625 34.7344 52.5938 33.6094L59.9062 29.3906C61.875 28.2656 64.5469 28.9688 65.6719 30.9375C66.7969 32.9062 66.0937 35.5781 64.125 36.7031L56.8125 40.9219C56.1094 41.3438 55.4063 41.4844 54.7031 41.4844ZM90 36.5625C79.875 36.5625 71.7188 28.4062 71.7188 18.2812C71.7188 8.15625 79.875 0 90 0C100.125 0 108.281 8.15625 108.281 18.2812C108.281 28.4062 100.125 36.5625 90 36.5625ZM90 8.4375C84.5156 8.4375 80.1562 12.7969 80.1562 18.2812C80.1562 23.7656 84.5156 28.125 90 28.125C95.4844 28.125 99.8438 23.7656 99.8438 18.2812C99.8438 12.7969 95.4844 8.4375 90 8.4375ZM90 180C79.875 180 71.7188 171.844 71.7188 161.719C71.7188 151.594 79.875 143.438 90 143.438C100.125 143.438 108.281 151.594 108.281 161.719C108.281 171.844 100.125 180 90 180ZM90 151.875C84.5156 151.875 80.1562 156.234 80.1562 161.719C80.1562 167.203 84.5156 171.562 90 171.562C95.4844 171.562 99.8438 167.203 99.8438 161.719C99.8438 156.234 95.4844 151.875 90 151.875Z" fill="#71C2FF"/>
<path d="M153.281 144.844C143.156 144.844 135 136.688 135 126.562C135 116.438 143.156 108.281 153.281 108.281C163.406 108.281 171.562 116.438 171.562 126.562C171.562 136.688 163.406 144.844 153.281 144.844ZM153.281 116.719C147.797 116.719 143.438 121.078 143.438 126.562C143.438 132.047 147.797 136.406 153.281 136.406C158.766 136.406 163.125 132.047 163.125 126.562C163.125 121.078 158.766 116.719 153.281 116.719Z" fill="#71C2FF"/>
<path d="M153.281 71.7188C143.156 71.7188 135 63.5625 135 53.4375C135 43.3125 143.156 35.1562 153.281 35.1562C163.406 35.1562 171.562 43.3125 171.562 53.4375C171.562 63.5625 163.406 71.7188 153.281 71.7188ZM153.281 43.5938C147.797 43.5938 143.438 47.9531 143.438 53.4375C143.438 58.9219 147.797 63.2812 153.281 63.2812C158.766 63.2812 163.125 58.9219 163.125 53.4375C163.125 47.9531 158.766 43.5938 153.281 43.5938Z" fill="#71C2FF"/>
<path d="M26.7188 71.7188C16.5938 71.7188 8.4375 63.5625 8.4375 53.4375C8.4375 43.3125 16.5938 35.1562 26.7188 35.1562C36.8438 35.1562 45 43.3125 45 53.4375C45 63.5625 36.8438 71.7188 26.7188 71.7188ZM26.7188 43.5938C21.2344 43.5938 16.875 47.9531 16.875 53.4375C16.875 58.9219 21.2344 63.2812 26.7188 63.2812C32.2031 63.2812 36.5625 58.9219 36.5625 53.4375C36.5625 47.9531 32.2031 43.5938 26.7188 43.5938Z" fill="#71C2FF"/>
<path d="M26.7188 144.844C16.5938 144.844 8.4375 136.688 8.4375 126.562C8.4375 116.438 16.5938 108.281 26.7188 108.281C36.8438 108.281 45 116.438 45 126.562C45 136.688 36.8438 144.844 26.7188 144.844ZM26.7188 116.719C21.2344 116.719 16.875 121.078 16.875 126.562C16.875 132.047 21.2344 136.406 26.7188 136.406C32.2031 136.406 36.5625 132.047 36.5625 126.562C36.5625 121.078 32.2031 116.719 26.7188 116.719Z" fill="#71C2FF"/>
<path d="M125.156 90C125.156 109.406 109.406 125.156 90 125.156C70.5938 125.156 54.8438 109.406 54.8438 90C54.8438 70.5938 70.5938 54.8438 90 54.8438C94.2188 54.8438 98.1563 55.5469 101.813 56.9531C115.453 61.7344 125.156 74.8125 125.156 90Z" fill="white"/>
<path d="M96.8905 95.7652C95.0624 98.2965 104.484 105.89 107.578 104.343C112.922 101.812 116.297 96.609 116.297 94.7809C116.297 92.9527 113.765 89.1558 105.328 94.9215C103.078 96.609 98.7186 93.234 96.8905 95.7652Z" fill="#444B54"/>
<path d="M90 50.625C68.3438 50.625 50.625 68.3438 50.625 90C50.625 111.656 68.3438 129.375 90 129.375C111.656 129.375 129.375 111.656 129.375 90C129.375 68.3438 111.656 50.625 90 50.625ZM90 120.938C84.7969 120.938 79.875 119.672 75.5156 117.422H75.6562C76.7812 116.719 78.0469 116.016 79.3125 115.172C80.2969 114.469 81 113.625 81.5625 112.781C82.2656 111.656 82.9688 110.391 83.3906 108.984C85.9219 99.4219 77.625 99 77.3438 96.8906C77.0625 94.5 80.1562 92.8125 81.9844 90.8437C83.8125 88.875 84.375 86.0625 83.3906 84.375C80.2969 78.8906 72.9844 81.7031 72.4219 87.6094C72 91.125 69.8906 94.7812 68.0625 96.4687C66.2344 98.2969 62.7188 97.3125 61.7344 94.6406C60.6094 91.6875 64.4063 90.5625 63.8438 86.9062C63.7031 85.9219 62.5781 85.3594 61.3125 85.2187L59.2031 85.3594C61.7344 70.4531 74.5312 59.0625 90 59.0625C94.2188 59.0625 98.1563 59.9063 101.813 61.4531V63.7031C101.813 65.3906 100.828 67.0781 99.1406 67.7813C95.625 69.3281 92.1094 68.4844 90.5625 72.5625C89.4375 75.5156 92.6719 83.8125 96.4687 83.8125C101.391 83.8125 103.781 73.8281 105.188 73.8281C106.172 73.8281 107.578 76.7813 109.266 79.0313C110.391 80.5781 112.219 81.4219 114.187 81.4219H117.422L119.531 81.9844C120.516 84.375 120.938 87.1875 120.938 90C120.938 107.016 107.016 120.938 90 120.938Z" fill="#444B54"/>
</svg>
